<svg width="530" height="144" viewBox="0 0 530 144" fill="none" xmlns="http://www.w3.org/2000/svg">
<path d="M0.0415589 141V139L5.04156 137.2C7.70823 136.133 9.77489 134.867 11.2416 133.4C12.7082 131.8 13.9082 129.6 14.8416 126.8L56.0416 8.59999H73.0416L113.642 127.6C114.708 130.533 115.908 132.8 117.242 134.4C118.575 135.867 120.642 137.133 123.442 138.2L125.842 139V141H75.0416V139L78.0416 138C80.8416 136.933 82.5082 135.467 83.0416 133.6C83.7082 131.6 83.6416 129.267 82.8416 126.6L73.4416 97.8H29.0416L19.4416 126C18.5082 128.933 18.1749 131.267 18.4416 133C18.8416 134.733 20.4416 136.133 23.2416 137.2L27.6416 139V141H0.0415589ZM30.4416 93.8H72.2416L52.0416 31.6L30.4416 93.8ZM164.72 143.6L130.92 141V139L132.92 138.6C138.12 137.4 140.72 134.067 140.72 128.6V21.6C140.72 18.8 140.253 16.6667 139.32 15.2C138.52 13.7333 136.786 12.7333 134.12 12.2L131.32 11.4V9.39999L166.92 0.799993L169.32 2.59999L168.52 30.8V51C172.92 47.9333 177.72 45.6667 182.92 44.2C188.12 42.6 193.386 41.8 198.72 41.8C206.32 41.8 213.053 43.6 218.92 47.2C224.786 50.6667 229.386 56.1333 232.72 63.6C236.186 70.9333 237.92 80.4 237.92 92C237.92 103.6 235.986 113.267 232.12 121C228.386 128.6 223.32 134.333 216.92 138.2C210.653 142.067 203.72 144 196.12 144C191.186 144 186.186 143.333 181.12 142C176.186 140.667 171.786 138.8 167.92 136.4L164.72 143.6ZM186.12 137.2C190.386 137.2 194.12 135.867 197.32 133.2C200.52 130.533 203.053 126 204.92 119.6C206.786 113.067 207.72 104.133 207.72 92.8C207.72 81.4667 206.853 72.7333 205.12 66.6C203.386 60.4667 200.92 56.2 197.72 53.8C194.653 51.4 190.92 50.2 186.52 50.2C180.253 50.2 174.453 51.9333 169.12 55.4V132.2C171.653 133.8 174.253 135.067 176.92 136C179.586 136.8 182.653 137.2 186.12 137.2ZM296.502 144C286.369 144 277.569 141.933 270.102 137.8C262.636 133.533 256.836 127.533 252.702 119.8C248.702 112.067 246.702 103 246.702 92.6C246.702 82.2 248.836 73.2 253.102 65.6C257.502 58 263.436 52.1333 270.902 48C278.502 43.8667 287.036 41.8 296.502 41.8C305.969 41.8 314.436 43.8667 321.902 48C329.369 52 335.236 57.8 339.503 65.4C343.903 73 346.103 82.0667 346.103 92.6C346.103 103.133 344.036 112.267 339.902 120C335.902 127.6 330.169 133.533 322.702 137.8C315.369 141.933 306.636 144 296.502 144ZM296.502 140C301.169 140 304.903 138.667 307.703 136C310.503 133.333 312.503 128.6 313.703 121.8C315.036 115 315.702 105.4 315.702 93C315.702 80.4667 315.036 70.8 313.703 64C312.503 57.2 310.503 52.4667 307.703 49.8C304.903 47.1333 301.169 45.8 296.502 45.8C291.836 45.8 288.036 47.1333 285.102 49.8C282.302 52.4667 280.236 57.2 278.902 64C277.702 70.8 277.102 80.4667 277.102 93C277.102 105.4 277.702 115 278.902 121.8C280.236 128.6 282.302 133.333 285.102 136C288.036 138.667 291.836 140 296.502 140ZM388.306 144C383.106 144 378.306 143 373.906 141C369.639 139 366.239 135.8 363.706 131.4C361.306 126.867 360.172 120.933 360.306 113.6L360.906 62.2C360.906 59.1333 360.372 56.9333 359.306 55.6C358.239 54.2667 356.572 53.3333 354.306 52.8L351.906 52V50L387.706 43L389.706 45L388.706 73.4V121.6C388.706 125.867 389.906 129 392.306 131C394.839 133 397.972 134 401.706 134C405.439 134 408.772 133.467 411.706 132.4C414.639 131.333 417.572 129.733 420.506 127.6L421.306 62.4C421.306 59.3333 420.839 57.2 419.906 56C418.972 54.6667 417.239 53.7333 414.706 53.2L412.706 52.6V50.6L447.706 43L449.706 45L449.106 73.4V127.6C449.106 130.533 449.506 132.8 450.306 134.4C451.106 136 452.839 137.333 455.506 138.4L457.506 139V141L422.506 143L420.706 131.2C416.306 134.8 411.506 137.867 406.306 140.4C401.239 142.8 395.239 144 388.306 144ZM501.582 144C493.049 144 486.382 141.867 481.582 137.6C476.916 133.333 474.582 126.533 474.582 117.2V48.8H460.782V46.8L465.582 46C469.716 45.0667 473.249 43.7333 476.182 42C479.249 40.2667 482.249 37.9333 485.182 35L501.582 16.8H503.582L502.982 44.8H525.382V48.8H502.782V120.8C502.782 125.467 503.782 129 505.782 131.4C507.916 133.8 510.582 135 513.782 135C516.582 135 519.049 134.333 521.182 133C523.316 131.533 525.449 129.6 527.582 127.2L529.582 129.2C526.916 133.733 523.249 137.333 518.582 140C513.916 142.667 508.249 144 501.582 144Z" fill="white" fill-opacity="0.17"/>
</svg>
