<svg width="21" height="21" viewBox="0 0 21 21" fill="none" xmlns="http://www.w3.org/2000/svg">
<path fill-rule="evenodd" clip-rule="evenodd" d="M0.552734 15.5877C0.552734 16.7505 1.49519 17.693 2.658 17.693H18.0966C18.484 17.693 18.7984 18.0074 18.7984 18.3948C18.7984 18.5807 18.7247 18.7597 18.5928 18.8909C18.4615 19.0228 18.2826 19.0965 18.0966 19.0965H2.658C2.27063 19.0965 1.95624 19.4109 1.95624 19.7983C1.95624 20.1856 2.27063 20.5 2.658 20.5H18.0966C18.6552 20.5 19.1907 20.2783 19.585 19.8832C19.9801 19.4888 20.2019 18.9534 20.2019 18.3948C20.2019 17.232 19.2594 16.2895 18.0966 16.2895H2.658C2.27063 16.2895 1.95624 15.9751 1.95624 15.5877C1.95624 15.2004 2.27063 14.886 2.658 14.886H12.4826C12.8699 14.886 13.1843 14.5716 13.1843 14.1842C13.1843 13.7969 12.8699 13.4825 12.4826 13.4825C12.4826 13.4825 5.66993 13.4825 2.658 13.4825C1.49519 13.4825 0.552734 14.4249 0.552734 15.5877ZM15.6405 0.5C12.7359 0.5 10.3773 2.8586 10.3773 5.76316C10.3773 6.43404 10.6433 7.3 11.0791 8.22421C11.9977 10.1688 13.6552 12.4284 14.5275 13.5583C14.7857 13.9021 15.2005 14.1099 15.6405 14.1099C16.0777 14.1099 16.4889 13.9056 16.7527 13.5576C17.6257 12.4284 19.2833 10.1688 20.2012 8.22421C20.6377 7.3 20.9036 6.43404 20.9036 5.76316C20.9036 2.8586 18.545 0.5 15.6405 0.5ZM15.6405 3.6579C14.4784 3.6579 13.5352 4.60106 13.5352 5.76316C13.5352 6.92527 14.4784 7.86843 15.6405 7.86843C16.8026 7.86843 17.7457 6.92527 17.7457 5.76316C17.7457 4.60106 16.8026 3.6579 15.6405 3.6579ZM15.6405 5.06141C16.0278 5.06141 16.3422 5.3758 16.3422 5.76316C16.3422 6.15053 16.0278 6.46492 15.6405 6.46492C15.2531 6.46492 14.9387 6.15053 14.9387 5.76316C14.9387 5.3758 15.2531 5.06141 15.6405 5.06141Z" fill="#4D5756"/>
</svg>
