<svg width="40" height="40" viewBox="0 0 40 40" fill="none" xmlns="http://www.w3.org/2000/svg">
<circle cx="20" cy="20" r="19" fill="#1C7A73" stroke="#F4F9F9" stroke-width="2"/>
<path d="M25 15C24.4917 15 24.025 14.7084 23.7917 14.2584L23.1917 13.05C22.8083 12.2917 21.8083 11.6667 20.9583 11.6667H19.05C18.1917 11.6667 17.1917 12.2917 16.8083 13.05L16.2083 14.2584C15.975 14.7084 15.5083 15 15 15C13.1917 15 11.7583 16.525 11.875 18.325L12.3083 25.2084C12.4083 26.925 13.3333 28.3334 15.6333 28.3334H24.3667C26.6667 28.3334 27.5833 26.925 27.6917 25.2084L28.125 18.325C28.2417 16.525 26.8083 15 25 15ZM18.75 16.0417H21.25C21.5917 16.0417 21.875 16.325 21.875 16.6667C21.875 17.0084 21.5917 17.2917 21.25 17.2917H18.75C18.4083 17.2917 18.125 17.0084 18.125 16.6667C18.125 16.325 18.4083 16.0417 18.75 16.0417ZM20 25.1C18.45 25.1 17.1833 23.8417 17.1833 22.2834C17.1833 20.725 18.4417 19.4667 20 19.4667C21.5583 19.4667 22.8167 20.725 22.8167 22.2834C22.8167 23.8417 21.55 25.1 20 25.1Z" fill="white"/>
</svg>
