<svg width="68" height="52" viewBox="0 0 68 52" fill="none" xmlns="http://www.w3.org/2000/svg">
<rect width="68" height="52" rx="26" fill="#1C7A73"/>
<path d="M33.4022 18.8778C33.5942 18.4887 33.6903 18.2941 33.8206 18.232C33.9341 18.1779 34.0659 18.1779 34.1793 18.232C34.3097 18.2941 34.4057 18.4887 34.5978 18.8778L36.42 22.5694C36.4767 22.6843 36.5051 22.7418 36.5465 22.7864C36.5832 22.8258 36.6272 22.8578 36.6761 22.8806C36.7313 22.9062 36.7946 22.9155 36.9214 22.934L40.9975 23.5298C41.4267 23.5925 41.6413 23.6239 41.7406 23.7287C41.827 23.82 41.8677 23.9453 41.8512 24.0699C41.8323 24.213 41.6769 24.3644 41.3662 24.667L38.4178 27.5387C38.3259 27.6282 38.28 27.673 38.2503 27.7263C38.2241 27.7734 38.2072 27.8252 38.2007 27.8788C38.1934 27.9393 38.2042 28.0025 38.2259 28.129L38.9216 32.1851C38.995 32.6129 39.0317 32.8269 38.9627 32.9538C38.9027 33.0642 38.7961 33.1417 38.6725 33.1646C38.5305 33.1909 38.3384 33.0899 37.9542 32.8879L34.3103 30.9716C34.1967 30.9119 34.14 30.882 34.0802 30.8703C34.0272 30.8599 33.9727 30.8599 33.9198 30.8703C33.86 30.882 33.8032 30.9119 33.6897 30.9716L30.0457 32.8879C29.6616 33.0899 29.4695 33.1909 29.3274 33.1646C29.2039 33.1417 29.0972 33.0642 29.0372 32.9538C28.9683 32.8269 29.005 32.6129 29.0784 32.1851L29.774 28.129C29.7957 28.0025 29.8066 27.9393 29.7992 27.8788C29.7927 27.8252 29.7759 27.7734 29.7496 27.7263C29.72 27.673 29.674 27.6282 29.5821 27.5387L26.6338 24.667C26.323 24.3644 26.1676 24.213 26.1487 24.0699C26.1323 23.9453 26.1729 23.82 26.2593 23.7287C26.3587 23.6239 26.5733 23.5925 27.0025 23.5298L31.0786 22.934C31.2053 22.9155 31.2687 22.9062 31.3239 22.8806C31.3728 22.8578 31.4168 22.8258 31.4534 22.7864C31.4949 22.7418 31.5232 22.6843 31.5799 22.5694L33.4022 18.8778Z" stroke="white" stroke-width="2" stroke-linecap="round" stroke-linejoin="round"/>
</svg>
