<svg width="12" height="14" viewBox="0 0 12 14" fill="none" xmlns="http://www.w3.org/2000/svg">
<path d="M11.25 5.83335H0.75M8.33333 1.16669V3.50002M3.66667 1.16669V3.50002M3.55 12.8334H8.45C9.43009 12.8334 9.92014 12.8334 10.2945 12.6426C10.6238 12.4748 10.8915 12.2071 11.0593 11.8778C11.25 11.5035 11.25 11.0134 11.25 10.0334V5.13335C11.25 4.15326 11.25 3.66322 11.0593 3.28887C10.8915 2.95959 10.6238 2.69187 10.2945 2.52409C9.92014 2.33335 9.43009 2.33335 8.45 2.33335H3.55C2.56991 2.33335 2.07986 2.33335 1.70552 2.52409C1.37623 2.69187 1.10852 2.95959 0.940739 3.28887C0.75 3.66322 0.75 4.15326 0.75 5.13335V10.0334C0.75 11.0134 0.75 11.5035 0.940739 11.8778C1.10852 12.2071 1.37623 12.4748 1.70552 12.6426C2.07986 12.8334 2.56991 12.8334 3.55 12.8334Z" stroke="white" stroke-width="1.5" stroke-linecap="round" stroke-linejoin="round"/>
</svg>
