<svg width="27" height="26" viewBox="0 0 27 26" fill="none" xmlns="http://www.w3.org/2000/svg">
<g clip-path="url(#clip0_1_1516)">
<path fill-rule="evenodd" clip-rule="evenodd" d="M0.936523 13C0.936523 19.435 5.62188 24.765 11.8039 25.87L11.8809 25.8071C11.8769 25.8064 11.8729 25.8057 11.8689 25.8049V16.6399H8.61522V12.9999H11.8689V10.1399C11.8689 6.88995 13.9513 5.06995 16.9447 5.06995C17.8558 5.06995 18.897 5.19995 19.808 5.32995V8.64495H18.1161C16.5543 8.64495 16.1638 9.42495 16.1638 10.4649V12.9999H19.6128L19.0271 16.6399H16.1638V25.8049C16.1242 25.8121 16.0846 25.8191 16.0449 25.8259L16.0989 25.87C22.2809 24.765 26.9663 19.435 26.9663 13C26.9663 5.85 21.1096 0 13.9514 0C6.79322 0 0.936523 5.85 0.936523 13Z" fill="white"/>
</g>
<defs>
<clipPath id="clip0_1_1516">
<rect width="26.0297" height="26" fill="white" transform="translate(0.936523)"/>
</clipPath>
</defs>
</svg>
