<svg width="26" height="26" viewBox="0 0 26 26" fill="none" xmlns="http://www.w3.org/2000/svg">
<mask id="mask0_1_675" style="mask-type:luminance" maskUnits="userSpaceOnUse" x="0" y="0" width="26" height="26">
<path d="M25.1136 10.6364H13V15.6591H19.9727C19.3227 18.85 16.6045 20.6818 13 20.6818C8.74545 20.6818 5.31818 17.2545 5.31818 13C5.31818 8.74545 8.74545 5.31818 13 5.31818C14.8318 5.31818 16.4864 5.96818 17.7864 7.03182L21.5682 3.25C19.2636 1.24091 16.3091 0 13 0C5.79091 0 0 5.79091 0 13C0 20.2091 5.79091 26 13 26C19.5 26 25.4091 21.2727 25.4091 13C25.4091 12.2318 25.2909 11.4045 25.1136 10.6364Z" fill="white"/>
</mask>
<g mask="url(#mask0_1_675)">
<path d="M-1.18188 20.6818V5.31812L8.86357 12.9999L-1.18188 20.6818Z" fill="#FBBC05"/>
</g>
<mask id="mask1_1_675" style="mask-type:luminance" maskUnits="userSpaceOnUse" x="0" y="0" width="26" height="26">
<path d="M25.1136 10.6364H13V15.6591H19.9727C19.3227 18.85 16.6045 20.6818 13 20.6818C8.74545 20.6818 5.31818 17.2545 5.31818 13C5.31818 8.74545 8.74545 5.31818 13 5.31818C14.8318 5.31818 16.4864 5.96818 17.7864 7.03182L21.5682 3.25C19.2636 1.24091 16.3091 0 13 0C5.79091 0 0 5.79091 0 13C0 20.2091 5.79091 26 13 26C19.5 26 25.4091 21.2727 25.4091 13C25.4091 12.2318 25.2909 11.4045 25.1136 10.6364Z" fill="white"/>
</mask>
<g mask="url(#mask1_1_675)">
<path d="M-1.18188 5.31811L8.86357 12.9999L12.9999 9.39539L27.1818 7.09084V-1.18188H-1.18188V5.31811Z" fill="#EA4335"/>
</g>
<mask id="mask2_1_675" style="mask-type:luminance" maskUnits="userSpaceOnUse" x="0" y="0" width="26" height="26">
<path d="M25.1136 10.6364H13V15.6591H19.9727C19.3227 18.85 16.6045 20.6818 13 20.6818C8.74545 20.6818 5.31818 17.2545 5.31818 13C5.31818 8.74545 8.74545 5.31818 13 5.31818C14.8318 5.31818 16.4864 5.96818 17.7864 7.03182L21.5682 3.25C19.2636 1.24091 16.3091 0 13 0C5.79091 0 0 5.79091 0 13C0 20.2091 5.79091 26 13 26C19.5 26 25.4091 21.2727 25.4091 13C25.4091 12.2318 25.2909 11.4045 25.1136 10.6364Z" fill="white"/>
</mask>
<g mask="url(#mask2_1_675)">
<path d="M-1.18188 20.6818L16.5454 7.09084L21.2136 7.68175L27.1818 -1.18188V27.1818H-1.18188V20.6818Z" fill="#34A853"/>
</g>
<mask id="mask3_1_675" style="mask-type:luminance" maskUnits="userSpaceOnUse" x="0" y="0" width="26" height="26">
<path d="M25.1136 10.6364H13V15.6591H19.9727C19.3227 18.85 16.6045 20.6818 13 20.6818C8.74545 20.6818 5.31818 17.2545 5.31818 13C5.31818 8.74545 8.74545 5.31818 13 5.31818C14.8318 5.31818 16.4864 5.96818 17.7864 7.03182L21.5682 3.25C19.2636 1.24091 16.3091 0 13 0C5.79091 0 0 5.79091 0 13C0 20.2091 5.79091 26 13 26C19.5 26 25.4091 21.2727 25.4091 13C25.4091 12.2318 25.2909 11.4045 25.1136 10.6364Z" fill="white"/>
</mask>
<g mask="url(#mask3_1_675)">
<path d="M27.1818 27.1818L8.86364 12.9999L6.5 11.2272L27.1818 5.31812V27.1818Z" fill="#4285F4"/>
</g>
</svg>
