<svg width="24" height="26" viewBox="0 0 24 26" fill="none" xmlns="http://www.w3.org/2000/svg">
<path d="M4.6977 23.853C5.57618 24.9438 6.89594 26 8.41498 26C9.27923 26 10.0133 25.5938 10.8023 25.2972C11.529 25.0296 12.2973 24.8921 13.0718 24.891C13.8189 24.8867 14.5594 25.0317 15.2497 25.3175C15.6157 25.4719 15.9777 25.6364 16.3498 25.7786C16.7274 25.9242 17.1286 25.9992 17.5333 26C18.282 25.9915 19.0107 25.7571 19.6238 25.3277C21.4052 24.109 22.7249 21.9681 23.6603 20.0933C23.7539 19.9064 23.8434 19.7175 23.9328 19.5306C24.0813 19.2178 23.8474 18.8218 23.4326 18.5943C21.6024 17.5908 20.5307 16.039 20.3518 13.8981C20.1728 11.7572 21.0066 10.0673 22.6802 8.84042L23.0096 8.57027C23.1926 8.41996 23.093 8.00356 22.7493 7.67857C21.4834 6.43343 19.7875 5.72093 18.0112 5.68799C17.6664 5.68815 17.3223 5.71669 16.9822 5.7733C15.4368 6.03736 14.1963 6.77265 12.7403 6.77265C12.2985 6.77311 11.8594 6.70458 11.4388 6.56953C10.2187 6.17954 9.00674 5.68799 7.70935 5.68799C7.567 5.68799 7.42262 5.68799 7.27824 5.70627C5.67879 5.87653 4.18531 6.58659 3.04444 7.71919C0.795357 9.9332 0.476093 13.372 1.03735 16.2787C1.57623 19.0939 2.90209 21.6309 4.6977 23.853Z" fill="white"/>
<path d="M12.5903 5.68795C12.6194 5.69054 12.6487 5.69054 12.6777 5.68795C16.9746 4.88766 17.4443 1.57274 17.4708 0.362139C17.4717 0.313189 17.4625 0.264578 17.4437 0.219351C17.4249 0.174124 17.397 0.133257 17.3617 0.0993127C17.3264 0.065368 17.2844 0.0390771 17.2385 0.0220881C17.1925 0.00509904 17.1435 -0.00222181 17.0946 0.00058444C17.0583 0.000548076 17.0221 0.00463681 16.9868 0.0127717C12.6472 1.01619 12.1958 4.14221 12.1836 5.31015C12.1846 5.3619 12.196 5.41291 12.2172 5.46016C12.2384 5.50741 12.2688 5.54992 12.3068 5.58517C12.3447 5.62042 12.3894 5.64768 12.4381 5.66534C12.4868 5.683 12.5386 5.69069 12.5903 5.68795ZM16.6085 0.953219C16.4357 2.18413 15.7219 4.07924 13.0377 4.76985C13.2004 3.6141 13.8836 1.78195 16.6085 0.953219Z" fill="white"/>
<path d="M15.3545 1.22863L16.7132 0.588379V2.2018L15.6108 3.61033L14.457 4.66032L13.5084 4.91641H12.7393L13.2008 3.37984L14.1751 1.74083L15.3545 1.22863Z" fill="white"/>
</svg>
