<svg width="15" height="15" viewBox="0 0 15 15" fill="none" xmlns="http://www.w3.org/2000/svg">
<path d="M5.754 5.7C5.89506 5.299 6.17349 4.96086 6.53997 4.74548C6.90645 4.5301 7.33734 4.45136 7.75631 4.52323C8.17527 4.59509 8.55529 4.81291 8.82905 5.13812C9.1028 5.46332 9.25263 5.87491 9.252 6.3C9.252 7.5 7.452 8.1 7.452 8.1M7.5 10.5H7.506M13.5 7.5C13.5 10.8137 10.8137 13.5 7.5 13.5C4.18629 13.5 1.5 10.8137 1.5 7.5C1.5 4.18629 4.18629 1.5 7.5 1.5C10.8137 1.5 13.5 4.18629 13.5 7.5Z" stroke="black" stroke-width="1.5" stroke-linecap="round" stroke-linejoin="round"/>
</svg>
