<svg width="246" height="43" viewBox="0 0 246 43" fill="none" xmlns="http://www.w3.org/2000/svg">
<g filter="url(#filter0_d_1_757)">
<path d="M14.376 34.864C12.616 34.864 10.824 34.64 9 34.192C7.176 33.776 5.656 33.216 4.44 32.512L4.68 25.984H5.16L6.648 29.104C7.096 30 7.576 30.8 8.088 31.504C8.6 32.176 9.304 32.704 10.2 33.088C10.84 33.408 11.448 33.632 12.024 33.76C12.632 33.856 13.304 33.904 14.04 33.904C15.992 33.904 17.528 33.376 18.648 32.32C19.8 31.264 20.376 29.904 20.376 28.24C20.376 26.672 19.992 25.456 19.224 24.592C18.456 23.696 17.224 22.832 15.528 22L13.56 21.136C10.808 19.92 8.648 18.528 7.08 16.96C5.544 15.36 4.776 13.248 4.776 10.624C4.776 8.736 5.256 7.104 6.216 5.728C7.208 4.352 8.568 3.296 10.296 2.56C12.056 1.824 14.104 1.456 16.44 1.456C18.136 1.456 19.736 1.68 21.24 2.128C22.776 2.576 24.104 3.184 25.224 3.952L24.936 9.712H24.456L22.488 6.112C21.944 4.992 21.4 4.208 20.856 3.76C20.312 3.28 19.688 2.944 18.984 2.752C18.568 2.624 18.184 2.544 17.832 2.512C17.48 2.448 17.032 2.416 16.488 2.416C14.856 2.416 13.48 2.896 12.36 3.856C11.24 4.784 10.68 6.048 10.68 7.648C10.68 9.28 11.112 10.592 11.976 11.584C12.84 12.544 14.104 13.408 15.768 14.176L17.976 15.136C21.048 16.48 23.256 17.92 24.6 19.456C25.944 20.96 26.616 22.912 26.616 25.312C26.616 28.128 25.544 30.432 23.4 32.224C21.288 33.984 18.28 34.864 14.376 34.864ZM28.8998 34V33.52L29.6198 33.28C30.7078 32.928 31.2518 32.144 31.2518 30.928V5.248C31.2518 4.608 31.1238 4.128 30.8678 3.808C30.6118 3.488 30.1638 3.232 29.5238 3.04L28.8998 2.896V2.416L37.6838 0.351998L38.2598 0.783998L38.1158 7.504V30.928C38.1158 32.208 38.6438 33.008 39.6998 33.328L40.3718 33.52V34H28.8998ZM46.7078 34L38.1638 22L47.0438 13.792C47.4598 13.408 47.6998 13.008 47.7638 12.592C47.8598 12.144 47.5878 11.824 46.9478 11.632L46.1318 11.392V10.912H53.2838V11.392L51.8438 11.776C51.1398 12 50.5638 12.272 50.1158 12.592C49.6998 12.88 49.1878 13.296 48.5798 13.84L43.2038 18.88L51.7958 30.832C52.3078 31.536 52.7878 32.08 53.2358 32.464C53.6838 32.848 54.2598 33.168 54.9637 33.424L55.1558 33.52V34H46.7078ZM67.8518 10.192C69.9318 10.192 71.7078 10.624 73.1798 11.488C74.6518 12.32 75.7718 13.472 76.5398 14.944C77.3398 16.384 77.7398 18.032 77.7398 19.888C77.7398 20.24 77.7238 20.608 77.6918 20.992C77.6598 21.344 77.5958 21.664 77.4998 21.952H63.1958C63.2278 25.408 63.8358 27.904 65.0198 29.44C66.2358 30.944 68.0278 31.696 70.3958 31.696C71.9958 31.696 73.2918 31.44 74.2838 30.928C75.2758 30.416 76.2038 29.664 77.0678 28.672L77.5478 29.104C76.5558 30.864 75.2278 32.24 73.5638 33.232C71.9318 34.224 69.9638 34.72 67.6598 34.72C65.3878 34.72 63.3718 34.24 61.6118 33.28C59.8518 32.288 58.4758 30.88 57.4838 29.056C56.4918 27.232 55.9958 25.056 55.9958 22.528C55.9958 19.904 56.5718 17.68 57.7238 15.856C58.8758 14 60.3478 12.592 62.1398 11.632C63.9638 10.672 65.8678 10.192 67.8518 10.192ZM67.7078 11.152C66.7798 11.152 65.9798 11.44 65.3078 12.016C64.6678 12.56 64.1558 13.552 63.7718 14.992C63.4198 16.4 63.2278 18.4 63.1958 20.992H71.4038C71.7238 17.504 71.5958 14.992 71.0198 13.456C70.4438 11.92 69.3398 11.152 67.7078 11.152ZM89.2519 34.72C87.2039 34.72 85.6039 34.208 84.4519 33.184C83.3319 32.16 82.7719 30.528 82.7719 28.288V11.872H79.4599V11.392L80.6119 11.2C81.6039 10.976 82.4519 10.656 83.1559 10.24C83.8919 9.824 84.6119 9.264 85.3159 8.56L89.2519 4.192H89.7319L89.5879 10.912H94.9639V11.872H89.5399V29.152C89.5399 30.272 89.7799 31.12 90.2599 31.696C90.7719 32.272 91.4119 32.56 92.1799 32.56C92.8519 32.56 93.4439 32.4 93.9559 32.08C94.4679 31.728 94.9799 31.264 95.4919 30.688L95.9719 31.168C95.3319 32.256 94.4519 33.12 93.3319 33.76C92.2119 34.4 90.8519 34.72 89.2519 34.72ZM109.239 34.72C107.063 34.72 105.079 34.256 103.287 33.328C101.527 32.368 100.119 30.992 99.063 29.2C98.039 27.376 97.527 25.152 97.527 22.528C97.527 19.936 98.087 17.728 99.207 15.904C100.359 14.048 101.879 12.64 103.767 11.68C105.687 10.688 107.783 10.192 110.055 10.192C111.911 10.192 113.479 10.496 114.759 11.104C116.039 11.712 117.015 12.512 117.687 13.504C118.359 14.464 118.695 15.472 118.695 16.528C118.695 17.424 118.423 18.128 117.879 18.64C117.335 19.12 116.631 19.36 115.767 19.36C114.839 19.36 114.087 19.024 113.511 18.352C112.935 17.68 112.599 16.8 112.503 15.712C112.471 15.008 112.487 14.416 112.551 13.936C112.615 13.424 112.615 12.912 112.551 12.4C112.423 11.856 112.215 11.504 111.927 11.344C111.671 11.152 111.303 11.056 110.823 11.056C108.871 11.056 107.351 11.904 106.263 13.6C105.207 15.296 104.679 18 104.679 21.712C104.679 24.944 105.271 27.424 106.455 29.152C107.671 30.848 109.527 31.696 112.023 31.696C113.527 31.696 114.743 31.424 115.671 30.88C116.599 30.336 117.495 29.52 118.359 28.432L118.839 28.816C118.039 30.704 116.807 32.16 115.143 33.184C113.479 34.208 111.511 34.72 109.239 34.72ZM120.167 34V33.52L120.743 33.328C121.895 32.944 122.471 32.144 122.471 30.928V5.296C122.471 4.624 122.359 4.128 122.135 3.808C121.911 3.488 121.479 3.248 120.839 3.088L120.119 2.896V2.416L128.567 0.351998L129.335 0.783998L129.143 7.552V13.552C130.263 12.624 131.463 11.84 132.743 11.2C134.055 10.528 135.495 10.192 137.063 10.192C139.143 10.192 140.791 10.784 142.007 11.968C143.255 13.152 143.879 14.976 143.879 17.44V30.976C143.879 31.616 144.007 32.128 144.263 32.512C144.519 32.896 144.967 33.184 145.607 33.376L145.991 33.52V34H134.759V33.52L135.335 33.376C136.487 32.992 137.063 32.176 137.063 30.928V15.856C137.063 14.576 136.839 13.696 136.391 13.216C135.975 12.736 135.223 12.496 134.135 12.496C133.431 12.496 132.663 12.64 131.831 12.928C130.999 13.184 130.151 13.648 129.287 14.32V31.024C129.287 32.272 129.863 33.072 131.015 33.424L131.398 33.52V34H120.167ZM148.826 22.48V21.184H160.922V22.48H148.826ZM172.924 34.72C170.876 34.72 169.276 34.208 168.124 33.184C167.004 32.16 166.444 30.528 166.444 28.288V11.872H163.132V11.392L164.284 11.2C165.276 10.976 166.124 10.656 166.828 10.24C167.564 9.824 168.284 9.264 168.988 8.56L172.924 4.192H173.404L173.26 10.912H178.636V11.872H173.212V29.152C173.212 30.272 173.452 31.12 173.932 31.696C174.444 32.272 175.084 32.56 175.852 32.56C176.524 32.56 177.116 32.4 177.628 32.08C178.14 31.728 178.652 31.264 179.164 30.688L179.644 31.168C179.004 32.256 178.124 33.12 177.004 33.76C175.884 34.4 174.524 34.72 172.924 34.72ZM181.292 34V33.52L181.868 33.328C183.02 32.944 183.596 32.144 183.596 30.928V5.296C183.596 4.624 183.484 4.128 183.26 3.808C183.036 3.488 182.604 3.248 181.964 3.088L181.244 2.896V2.416L189.692 0.351998L190.46 0.783998L190.268 7.552V13.552C191.388 12.624 192.588 11.84 193.868 11.2C195.18 10.528 196.62 10.192 198.188 10.192C200.268 10.192 201.916 10.784 203.132 11.968C204.38 13.152 205.004 14.976 205.004 17.44V30.976C205.004 31.616 205.132 32.128 205.388 32.512C205.644 32.896 206.092 33.184 206.732 33.376L207.116 33.52V34H195.884V33.52L196.46 33.376C197.612 32.992 198.188 32.176 198.188 30.928V15.856C198.188 14.576 197.964 13.696 197.516 13.216C197.1 12.736 196.348 12.496 195.26 12.496C194.556 12.496 193.788 12.64 192.956 12.928C192.124 13.184 191.276 13.648 190.412 14.32V31.024C190.412 32.272 190.988 33.072 192.14 33.424L192.523 33.52V34H181.292ZM214.751 7.696C213.663 7.696 212.735 7.36 211.967 6.688C211.231 5.984 210.863 5.104 210.863 4.048C210.863 2.96 211.231 2.08 211.967 1.408C212.735 0.735998 213.663 0.399998 214.751 0.399998C215.839 0.399998 216.751 0.735998 217.487 1.408C218.223 2.08 218.591 2.96 218.591 4.048C218.591 5.104 218.223 5.984 217.487 6.688C216.751 7.36 215.839 7.696 214.751 7.696ZM209.087 34V33.52L209.759 33.328C210.399 33.136 210.831 32.848 211.055 32.464C211.311 32.08 211.439 31.568 211.439 30.928V15.904C211.439 15.232 211.311 14.736 211.055 14.416C210.831 14.064 210.399 13.824 209.759 13.696L209.087 13.552V13.072L217.871 10.24L218.351 10.72L218.207 17.536V30.976C218.207 31.616 218.319 32.128 218.543 32.512C218.799 32.896 219.231 33.184 219.839 33.376L220.319 33.52V34H209.087ZM230.748 34.72C229.18 34.72 227.772 34.528 226.524 34.144C225.276 33.792 224.124 33.344 223.068 32.8L223.116 27.088H223.596L225.228 29.968C225.932 31.248 226.7 32.208 227.532 32.848C228.396 33.456 229.484 33.76 230.796 33.76C232.332 33.76 233.564 33.424 234.492 32.752C235.452 32.048 235.932 31.12 235.932 29.968C235.932 28.912 235.596 28.048 234.924 27.376C234.252 26.704 233.004 26.096 231.18 25.552L229.164 24.928C227.212 24.352 225.676 23.456 224.556 22.24C223.436 21.024 222.876 19.536 222.876 17.776C222.876 15.664 223.708 13.872 225.372 12.4C227.036 10.928 229.42 10.192 232.524 10.192C233.772 10.192 234.94 10.336 236.028 10.624C237.148 10.88 238.22 11.28 239.244 11.824L238.956 17.008H238.476L236.796 14.032C236.188 12.976 235.58 12.24 234.972 11.824C234.396 11.376 233.516 11.152 232.332 11.152C231.244 11.152 230.22 11.456 229.26 12.064C228.3 12.672 227.82 13.536 227.82 14.656C227.82 15.744 228.22 16.608 229.02 17.248C229.852 17.888 231.068 18.48 232.668 19.024L234.828 19.648C237.132 20.352 238.78 21.328 239.772 22.576C240.764 23.792 241.26 25.264 241.26 26.992C241.26 29.328 240.332 31.2 238.476 32.608C236.652 34.016 234.076 34.72 230.748 34.72Z" fill="white"/>
</g>
<defs>
<filter id="filter0_d_1_757" x="0.440002" y="0.352051" width="244.82" height="42.512" filterUnits="userSpaceOnUse" color-interpolation-filters="sRGB">
<feFlood flood-opacity="0" result="BackgroundImageFix"/>
<feColorMatrix in="SourceAlpha" type="matrix" values="0 0 0 0 0 0 0 0 0 0 0 0 0 0 0 0 0 0 127 0" result="hardAlpha"/>
<feOffset dy="4"/>
<feGaussianBlur stdDeviation="2"/>
<feComposite in2="hardAlpha" operator="out"/>
<feColorMatrix type="matrix" values="0 0 0 0 0 0 0 0 0 0 0 0 0 0 0 0 0 0 0.25 0"/>
<feBlend mode="normal" in2="BackgroundImageFix" result="effect1_dropShadow_1_757"/>
<feBlend mode="normal" in="SourceGraphic" in2="effect1_dropShadow_1_757" result="shape"/>
</filter>
</defs>
</svg>
