<svg width="625" height="141" viewBox="0 0 625 141" fill="none" xmlns="http://www.w3.org/2000/svg">
<path d="M47.7769 108.718C41.6362 108.718 35.6969 107.611 29.9589 105.396C24.3216 103.181 19.2379 99.9097 14.7079 95.581C10.2786 91.1517 6.75523 85.6653 4.1379 79.122C1.52056 72.5787 0.211895 64.928 0.211895 56.17C0.211895 47.5127 1.52056 39.9123 4.1379 33.369C6.75523 26.8257 10.3289 21.3897 14.8589 17.061C19.3889 12.6317 24.4726 9.30966 30.1099 7.095C35.8479 4.77966 41.7369 3.622 47.7769 3.622C53.9176 3.622 59.8066 4.72933 65.4439 6.944C71.1819 9.05799 76.2656 12.3297 80.6949 16.759C85.2249 21.0877 88.7986 26.574 91.4159 33.218C94.0332 39.7613 95.3419 47.412 95.3419 56.17C95.3419 64.7267 94.0332 72.327 91.4159 78.971C88.7986 85.5143 85.2249 91.0007 80.6949 95.43C76.2656 99.7587 71.1819 103.081 65.4439 105.396C59.8066 107.611 53.9176 108.718 47.7769 108.718ZM47.7769 105.547C53.3136 105.547 57.7932 104.087 61.2159 101.168C64.6386 98.148 67.1049 93.0643 68.6149 85.917C70.2256 78.669 71.0309 68.7533 71.0309 56.17C71.0309 43.486 70.2256 33.5703 68.6149 26.423C67.1049 19.175 64.6386 14.0913 61.2159 11.172C57.7932 8.15199 53.3136 6.64199 47.7769 6.64199C42.3409 6.64199 37.9116 8.15199 34.4889 11.172C31.0662 14.0913 28.5496 19.175 26.9389 26.423C25.4289 33.5703 24.6739 43.486 24.6739 56.17C24.6739 68.7533 25.4289 78.669 26.9389 85.917C28.5496 93.0643 31.0662 98.148 34.4889 101.168C37.9116 104.087 42.3409 105.547 47.7769 105.547ZM126.701 108.265C122.775 108.265 119.151 107.51 115.829 106C112.608 104.49 110.041 102.074 108.128 98.752C106.316 95.3293 105.46 90.8497 105.561 85.313L106.014 46.506C106.014 44.1907 105.611 42.5297 104.806 41.523C104.001 40.5163 102.742 39.8117 101.031 39.409L99.2191 38.805V37.295L126.248 32.01L127.758 33.52L127.003 54.962V91.353C127.003 94.5743 127.909 96.94 129.721 98.45C131.634 99.96 133.999 100.715 136.818 100.715C139.637 100.715 142.153 100.312 144.368 99.507C146.583 98.7017 148.797 97.4937 151.012 95.883L151.616 46.657C151.616 44.3417 151.264 42.731 150.559 41.825C149.854 40.8183 148.546 40.1137 146.633 39.711L145.123 39.258V37.748L171.548 32.01L173.058 33.52L172.605 54.962V95.883C172.605 98.0977 172.907 99.809 173.511 101.017C174.115 102.225 175.424 103.232 177.437 104.037L178.947 104.49V106L152.522 107.51L151.163 98.601C147.841 101.319 144.217 103.634 140.291 105.547C136.466 107.359 131.936 108.265 126.701 108.265ZM183.045 106V104.49L185.31 103.886C187.323 103.282 188.682 102.376 189.387 101.168C190.192 99.96 190.595 98.3997 190.595 96.487V49.224C190.595 47.0093 190.192 45.3987 189.387 44.392C188.682 43.2847 187.323 42.5297 185.31 42.127L183.045 41.523V40.013L209.017 31.255L210.527 32.765L211.886 45.751V46.959C213.295 44.1403 215.107 41.5733 217.322 39.258C219.637 36.842 222.154 34.879 224.872 33.369C227.691 31.859 230.459 31.104 233.177 31.104C237.002 31.104 239.922 32.161 241.935 34.275C243.948 36.389 244.955 39.0567 244.955 42.278C244.955 45.7007 243.948 48.3683 241.935 50.281C240.022 52.093 237.707 52.999 234.989 52.999C230.761 52.999 227.036 50.885 223.815 46.657L223.513 46.355C222.506 44.9457 221.349 44.1907 220.04 44.09C218.731 43.8887 217.523 44.4927 216.416 45.902C215.409 46.808 214.554 47.9153 213.849 49.224C213.245 50.432 212.641 51.8413 212.037 53.452V95.581C212.037 99.6077 213.799 102.124 217.322 103.131L222.154 104.49V106H183.045ZM278.883 106V104.49L281.601 103.433C283.614 102.628 284.973 101.621 285.678 100.413C286.483 99.205 286.886 97.5943 286.886 95.581V16.759C286.886 14.645 286.483 12.984 285.678 11.776C284.973 10.568 283.614 9.61166 281.601 8.907L278.883 7.84999V6.34H322.22C334.501 6.34 343.36 8.605 348.796 13.135C354.232 17.5643 356.95 23.2017 356.95 30.047C356.95 35.181 354.937 39.862 350.91 44.09C346.984 48.2173 340.189 51.1367 330.525 52.848C341.598 54.056 349.702 56.9753 354.836 61.606C359.97 66.136 362.537 71.6727 362.537 78.216C362.537 81.4373 361.832 84.709 360.423 88.031C359.014 91.2523 356.598 94.222 353.175 96.94C349.853 99.658 345.273 101.873 339.434 103.584C333.595 105.195 326.196 106 317.237 106H278.883ZM309.234 52.697H315.727C322.472 52.697 327.304 51.1367 330.223 48.016C333.243 44.8953 334.753 39.4593 334.753 31.708C334.753 23.6547 333.394 17.9167 330.676 14.494C327.958 11.0713 323.529 9.35999 317.388 9.35999H309.234V52.697ZM309.234 102.98H316.784C324.334 102.98 329.921 100.967 333.545 96.94C337.27 92.9133 339.132 86.6217 339.132 78.065C339.132 70.0117 337.37 64.2737 333.847 60.851C330.324 57.4283 324.535 55.717 316.482 55.717H309.234V102.98ZM365.806 106V104.49L367.618 103.886C371.242 102.678 373.054 100.161 373.054 96.336V15.551C373.054 13.5377 372.651 12.0277 371.846 11.021C371.04 9.91366 369.631 9.10833 367.618 8.60499L365.655 8.152V6.64199L393.288 0.148995L395.1 1.508L394.496 22.648V74.29C394.496 78.0147 394.496 81.7393 394.496 85.464C394.596 89.088 394.647 92.712 394.647 96.336C394.647 98.3493 395.049 100.01 395.855 101.319C396.66 102.527 398.019 103.433 399.932 104.037L401.895 104.49V106H365.806ZM444.762 108.265C437.111 108.265 430.467 106.705 424.83 103.584C419.192 100.363 414.813 95.8327 411.693 89.994C408.673 84.1553 407.163 77.31 407.163 69.458C407.163 61.606 408.773 54.811 411.995 49.073C415.317 43.335 419.796 38.9057 425.434 35.785C431.172 32.6643 437.614 31.104 444.762 31.104C451.909 31.104 458.301 32.6643 463.939 35.785C469.576 38.805 474.005 43.184 477.227 48.922C480.549 54.66 482.21 61.5053 482.21 69.458C482.21 77.4107 480.649 84.3063 477.529 90.145C474.509 95.883 470.18 100.363 464.543 103.584C459.006 106.705 452.412 108.265 444.762 108.265ZM444.762 105.245C448.285 105.245 451.104 104.238 453.218 102.225C455.332 100.212 456.842 96.638 457.748 91.504C458.754 86.37 459.258 79.122 459.258 69.76C459.258 60.2973 458.754 52.999 457.748 47.865C456.842 42.731 455.332 39.1573 453.218 37.144C451.104 35.1307 448.285 34.124 444.762 34.124C441.238 34.124 438.369 35.1307 436.155 37.144C434.041 39.1573 432.48 42.731 431.474 47.865C430.568 52.999 430.115 60.2973 430.115 69.76C430.115 79.122 430.568 86.37 431.474 91.504C432.48 96.638 434.041 100.212 436.155 102.225C438.369 104.238 441.238 105.245 444.762 105.245ZM519.76 79.877C512.814 79.877 506.925 78.7193 502.093 76.404V81.538C502.093 84.6587 503.653 86.521 506.774 87.125L535.162 92.41C539.893 93.316 544.171 94.524 547.997 96.034C551.822 97.4433 554.892 99.507 557.208 102.225C559.523 104.842 560.681 108.466 560.681 113.097C560.681 118.03 559.07 122.56 555.849 126.687C552.627 130.915 547.846 134.287 541.504 136.804C535.262 139.421 527.461 140.73 518.099 140.73C510.045 140.73 503.653 139.874 498.922 138.163C494.19 136.552 490.818 134.438 488.805 131.821C486.892 129.204 485.936 126.435 485.936 123.516C485.936 119.892 487.144 116.218 489.56 112.493C492.076 108.869 495.147 105.95 498.771 103.735C495.65 102.527 493.385 100.967 491.976 99.054C490.566 97.1413 489.862 95.0777 489.862 92.863C489.862 90.8497 490.365 88.9873 491.372 87.276C492.479 85.464 493.788 83.652 495.298 81.84L500.281 75.498C492.932 71.27 489.258 64.626 489.258 55.566C489.258 48.318 491.825 42.429 496.959 37.899C502.193 33.369 509.844 31.104 519.911 31.104C525.045 31.104 529.524 31.708 533.35 32.916C537.276 34.124 540.497 35.8353 543.014 38.05C546.235 37.5467 549.255 36.7413 552.074 35.634C554.993 34.426 557.61 32.8153 559.926 30.802L562.04 32.312V40.013H544.977C548.601 44.0397 550.413 49.224 550.413 55.566C550.413 62.6127 547.795 68.4513 542.561 73.082C537.427 77.612 529.826 79.877 519.76 79.877ZM519.609 76.857C523.635 76.857 526.555 75.196 528.367 71.874C530.279 68.552 531.236 63.0153 531.236 55.264C531.236 47.5127 530.279 42.0767 528.367 38.956C526.555 35.7347 523.736 34.124 519.911 34.124C516.186 34.124 513.367 35.785 511.455 39.107C509.542 42.3283 508.586 47.8147 508.586 55.566C508.586 63.3173 509.441 68.8037 511.153 72.025C512.965 75.2463 515.783 76.857 519.609 76.857ZM497.11 118.684C497.11 124.623 498.922 129.103 502.546 132.123C506.27 135.143 512.109 136.653 520.062 136.653C528.417 136.653 534.709 135.294 538.937 132.576C543.165 129.858 545.279 126.033 545.279 121.1C545.279 118.281 544.222 116.016 542.108 114.305C540.094 112.594 536.621 111.285 531.689 110.379L504.358 105.245C503.552 105.044 502.747 104.842 501.942 104.641C500.532 106.654 499.375 108.919 498.469 111.436C497.563 114.053 497.11 116.469 497.11 118.684ZM591.184 108.265C586.251 108.265 581.822 107.661 577.896 106.453C573.97 105.346 570.346 103.936 567.024 102.225L567.175 84.256H568.685L573.819 93.316C576.033 97.3427 578.449 100.363 581.067 102.376C583.785 104.289 587.207 105.245 591.335 105.245C596.167 105.245 600.042 104.188 602.962 102.074C605.982 99.8593 607.492 96.94 607.492 93.316C607.492 89.994 606.435 87.276 604.321 85.162C602.207 83.048 598.281 81.1353 592.543 79.424L586.201 77.461C580.06 75.649 575.228 72.8303 571.705 69.005C568.181 65.1797 566.42 60.4987 566.42 54.962C566.42 48.318 569.037 42.6807 574.272 38.05C579.506 33.4193 587.006 31.104 596.771 31.104C600.697 31.104 604.371 31.557 607.794 32.463C611.317 33.2683 614.689 34.5267 617.911 36.238L617.005 52.546H615.495L610.21 43.184C608.297 39.862 606.384 37.5467 604.472 36.238C602.66 34.8287 599.891 34.124 596.167 34.124C592.744 34.124 589.523 35.0803 586.503 36.993C583.483 38.9057 581.973 41.6237 581.973 45.147C581.973 48.5697 583.231 51.2877 585.748 53.301C588.365 55.3143 592.19 57.1767 597.224 58.888L604.019 60.851C611.267 63.0657 616.451 66.136 619.572 70.062C622.692 73.8873 624.253 78.518 624.253 83.954C624.253 91.3027 621.333 97.1917 615.495 101.621C609.757 106.05 601.653 108.265 591.184 108.265Z" fill="white" fill-opacity="0.17"/>
</svg>
