<svg width="19" height="21" viewBox="0 0 19 21" fill="none" xmlns="http://www.w3.org/2000/svg">
<path d="M18.3615 15.9295C18.2718 16.6748 17.8897 17.3538 17.2996 17.8166L14.487 20.0551C14.1103 20.3439 13.6484 20.5009 13.174 20.5C12.7157 20.5018 12.2699 20.3529 11.904 20.0767C9.46984 18.2381 7.28338 16.0945 5.39632 13.6982C3.50214 11.2964 1.92985 8.65785 0.718266 5.84872C0.348752 4.96172 0.612436 3.93661 1.36401 3.33738L4.23398 1.09881C4.82053 0.631528 5.5721 0.424362 6.31471 0.524811C7.05732 0.629744 7.72997 1.02079 8.18735 1.6154L9.69408 3.53828C10.0654 4.01809 10.2277 4.62708 10.1443 5.22798C10.06 5.82978 9.73803 6.37149 9.24924 6.73113L8.85461 7.03967C8.51558 7.29617 8.34249 7.7168 8.40258 8.13742C8.53621 9.00199 8.88689 9.81904 9.42141 10.5124C9.96402 11.2039 10.6797 11.7411 11.495 12.0693C11.8896 12.22 12.3335 12.1518 12.6645 11.8899C13.2564 11.429 14.0071 11.2227 14.7506 11.316C15.495 11.4083 16.1721 11.7931 16.6322 12.385L17.773 13.82C18.2403 14.4173 18.452 15.1762 18.3615 15.9295Z" fill="#4D5756"/>
</svg>
