<svg width="48" height="48" viewBox="0 0 48 48" fill="none" xmlns="http://www.w3.org/2000/svg">
<rect width="48" height="48" rx="24" fill="#051312" fill-opacity="0.05"/>
<path d="M30.0381 20.7871C30.0442 20.9279 30.0442 21.0623 30.0442 21.2031C30.0504 25.4719 26.9141 30.3999 21.1786 30.3999C19.487 30.3999 17.8262 29.8943 16.4001 28.9471C16.647 28.9791 16.894 28.9919 17.1409 28.9919C18.5424 28.9919 19.9068 28.5055 21.0119 27.6031C19.6784 27.5775 18.5053 26.6751 18.0979 25.3567C18.5671 25.4527 19.0486 25.4335 19.5055 25.2991C18.0546 25.0047 17.0113 23.6799 17.0051 22.1375C17.0051 22.1247 17.0051 22.1119 17.0051 22.0991C17.4373 22.3487 17.925 22.4895 18.4189 22.5023C17.0545 21.5551 16.6285 19.6671 17.4558 18.1887C19.0425 20.2111 21.3762 21.4335 23.8828 21.5679C23.6296 20.4479 23.9754 19.2703 24.7841 18.4767C26.0374 17.2543 28.0131 17.3183 29.1984 18.6175C29.8961 18.4767 30.569 18.2079 31.1802 17.8303C30.9456 18.5791 30.4579 19.2127 29.8096 19.6159C30.427 19.5391 31.0321 19.3663 31.6001 19.1103C31.1802 19.7631 30.6493 20.3263 30.0381 20.7871Z" fill="#051312"/>
</svg>
