<svg width="48" height="48" viewBox="0 0 48 48" fill="none" xmlns="http://www.w3.org/2000/svg">
<rect width="48" height="48" rx="24" fill="#051312" fill-opacity="0.05"/>
<path d="M31.9552 20.7014C31.9168 19.8495 31.7792 19.2666 31.5839 18.7574C31.3791 18.2322 31.107 17.7838 30.6621 17.3419C30.2173 16.8999 29.7724 16.6213 29.2475 16.4195C28.7386 16.221 28.156 16.0865 27.3047 16.048C26.4501 16.0096 26.178 16 24.008 16C21.8348 16 21.5627 16.0096 20.7114 16.048C19.86 16.0865 19.2775 16.2242 18.7686 16.4195C18.2405 16.6245 17.7924 16.8967 17.3507 17.3419C16.909 17.787 16.6305 18.2322 16.4289 18.7574C16.2337 19.2666 16.096 19.8495 16.0576 20.7014C16.0192 21.5564 16.0096 21.8287 16.0096 24C16.0096 26.1745 16.0192 26.4468 16.0576 27.2986C16.096 28.1505 16.2337 28.7334 16.4289 29.2426C16.6337 29.7678 16.9058 30.2162 17.3507 30.6581C17.7924 31.1033 18.2405 31.3787 18.7654 31.5805C19.2743 31.779 19.8568 31.9135 20.7082 31.952C21.5627 31.9904 21.8348 32 24.0048 32C26.178 32 26.4501 31.9904 27.3015 31.952C28.1528 31.9135 28.7354 31.7758 29.2443 31.5805C29.7692 31.3755 30.2173 31.1033 30.6589 30.6581C31.1006 30.213 31.3791 29.7678 31.5807 29.2426C31.7792 28.7334 31.9136 28.1505 31.952 27.2986C31.9904 26.4436 32 26.1713 32 24C32 21.8287 31.9936 21.5532 31.9552 20.7014ZM30.5181 27.2346C30.4829 28.016 30.3517 28.442 30.2429 28.7206C30.0988 29.0921 29.9228 29.3611 29.6411 29.6429C29.3595 29.9247 29.0938 30.0945 28.7194 30.245C28.4377 30.3539 28.012 30.4852 27.2343 30.5204C26.3925 30.5588 26.1396 30.5685 24.0016 30.5685C21.8636 30.5685 21.6107 30.5588 20.769 30.5204C19.988 30.4852 19.5623 30.3539 19.2839 30.245C18.9126 30.1009 18.6437 29.9247 18.3621 29.6429C18.0804 29.3611 17.9108 29.0953 17.7604 28.7206C17.6515 28.4388 17.5203 28.0128 17.4851 27.2346C17.4467 26.3923 17.4371 26.1393 17.4371 24C17.4371 21.8607 17.4467 21.6077 17.4851 20.7654C17.5203 19.984 17.6515 19.558 17.7604 19.2794C17.9044 18.9079 18.0804 18.6389 18.3621 18.3571C18.6437 18.0753 18.9094 17.9055 19.2839 17.755C19.5655 17.6461 19.9912 17.5148 20.769 17.4796C21.6107 17.4412 21.8636 17.4315 24.0016 17.4315C26.1396 17.4315 26.3925 17.4412 27.2343 17.4796C28.0152 17.5148 28.4409 17.6461 28.7194 17.755C29.0906 17.8991 29.3595 18.0753 29.6411 18.3571C29.9228 18.6389 30.0924 18.9047 30.2429 19.2794C30.3517 19.5612 30.4829 19.9872 30.5181 20.7654C30.5565 21.6077 30.5661 21.8607 30.5661 24C30.5661 26.1393 30.5533 26.3923 30.5181 27.2346Z" fill="#051312"/>
<path d="M24.0017 19.8878C21.7292 19.8878 19.892 21.7293 19.892 23.9999C19.892 26.2738 21.7324 28.112 24.0017 28.112C26.2709 28.112 28.1113 26.2674 28.1113 23.9999C28.1113 21.7261 26.2741 19.8878 24.0017 19.8878ZM24.0017 26.6677C22.5294 26.6677 21.3355 25.4731 21.3355 23.9999C21.3355 22.5268 22.5294 21.3322 24.0017 21.3322C25.4739 21.3322 26.6678 22.5268 26.6678 23.9999C26.6678 25.4731 25.4739 26.6677 24.0017 26.6677Z" fill="#051312"/>
<path d="M28.2713 20.6886C28.8016 20.6886 29.2315 20.2585 29.2315 19.7279C29.2315 19.1972 28.8016 18.7671 28.2713 18.7671C27.741 18.7671 27.3111 19.1972 27.3111 19.7279C27.3111 20.2585 27.741 20.6886 28.2713 20.6886Z" fill="#051312"/>
<path d="M16 24C16 26.1745 16.0096 26.4468 16.048 27.2986C16.0864 28.1505 16.224 28.7334 16.4193 29.2426C16.6241 29.7678 16.8962 30.2162 17.3411 30.6581C17.7828 31.1001 18.2308 31.3787 18.7558 31.5805C19.2647 31.779 19.8472 31.9135 20.6985 31.952C21.5531 31.9904 21.8252 32 23.9952 32C26.1684 32 26.4405 31.9904 27.2919 31.952C28.1432 31.9135 28.7257 31.7758 29.2346 31.5805C29.7596 31.3755 30.2076 31.1033 30.6493 30.6581C31.091 30.2162 31.3695 29.7678 31.5711 29.2426C31.7696 28.7334 31.904 28.1505 31.9424 27.2986C31.9808 26.4436 31.9904 26.1713 31.9904 24C31.9904 21.8255 31.9808 21.5532 31.9424 20.7014C31.904 19.8495 31.7664 19.2666 31.5711 18.7574C31.3663 18.2322 31.0942 17.7838 30.6493 17.3419C30.2108 16.8967 29.7628 16.6213 29.2378 16.4195C28.7289 16.221 28.1464 16.0865 27.2951 16.048C26.4405 16.0096 26.1684 16 23.9984 16C21.8252 16 21.5531 16.0096 20.7017 16.048C19.8504 16.0865 19.2679 16.2242 18.759 16.4195C18.234 16.6245 17.786 16.8967 17.3443 17.3419C16.9026 17.787 16.6241 18.2322 16.4225 18.7574C16.224 19.2666 16.0864 19.8495 16.048 20.7014C16.0096 21.5532 16 21.8255 16 24ZM17.4435 24C17.4435 21.8639 17.4531 21.6077 17.4915 20.7654C17.5267 19.984 17.6579 19.558 17.7668 19.2794C17.9108 18.9079 18.0868 18.6389 18.3685 18.3571C18.6501 18.0753 18.9158 17.9055 19.2903 17.755C19.5719 17.6461 19.9976 17.5148 20.7754 17.4796C21.6171 17.4412 21.87 17.4315 24.008 17.4315C26.146 17.4315 26.3989 17.4412 27.2406 17.4796C28.0216 17.5148 28.4473 17.6461 28.7257 17.755C29.097 17.8991 29.3659 18.0753 29.6475 18.3571C29.9292 18.6389 30.0988 18.9047 30.2493 19.2794C30.3581 19.5612 30.4893 19.9872 30.5245 20.7654C30.5629 21.6077 30.5725 21.8607 30.5725 24C30.5725 26.1393 30.5629 26.3923 30.5245 27.2346C30.4893 28.016 30.3581 28.442 30.2493 28.7206C30.1052 29.0921 29.9292 29.3611 29.6475 29.6429C29.3659 29.9247 29.1002 30.0945 28.7257 30.245C28.4441 30.3539 28.0184 30.4852 27.2406 30.5204C26.3989 30.5588 26.146 30.5685 24.008 30.5685C21.87 30.5685 21.6171 30.5588 20.7754 30.5204C19.9944 30.4852 19.5687 30.3539 19.2903 30.245C18.919 30.1009 18.6501 29.9247 18.3685 29.6429C18.0868 29.3611 17.9172 29.0953 17.7668 28.7206C17.6579 28.4388 17.5267 28.0128 17.4915 27.2346C17.4499 26.3923 17.4435 26.1361 17.4435 24Z" fill="#051312"/>
</svg>
