<svg width="24" height="20" viewBox="0 0 24 20" fill="none" xmlns="http://www.w3.org/2000/svg">
<path d="M23.953 2.57C23.0545 2.9656 22.1026 3.22674 21.128 3.345C22.1541 2.72825 22.9224 1.76104 23.291 0.621996C22.34 1.177 21.286 1.581 20.164 1.806C19.4238 1.01443 18.4429 0.489417 17.3736 0.312497C16.3044 0.135577 15.2067 0.316646 14.2509 0.827586C13.2952 1.33853 12.5349 2.15075 12.0881 3.13812C11.6412 4.12549 11.533 5.23277 11.78 6.288C7.69 6.095 4.067 4.13 1.64 1.162C1.19879 1.91181 0.968664 2.76702 0.974 3.637C0.974 5.347 1.844 6.85 3.162 7.733C2.38086 7.70813 1.61697 7.49693 0.934 7.117V7.177C0.933557 8.31339 1.32627 9.41494 2.04551 10.2948C2.76474 11.1746 3.76621 11.7785 4.88 12.004C4.1583 12.1974 3.40241 12.2264 2.668 12.089C2.98412 13.067 3.59766 13.9219 4.42301 14.5345C5.24837 15.1471 6.24435 15.4867 7.272 15.506C5.53153 16.8719 3.38248 17.6133 1.17 17.611C0.78 17.611 0.391 17.588 0 17.544C2.25571 18.9883 4.87851 19.755 7.557 19.753C16.61 19.753 21.555 12.257 21.555 5.768C21.555 5.558 21.555 5.348 21.54 5.138C22.506 4.44286 23.3392 3.57981 24 2.59L23.953 2.57Z" fill="#8E8E93"/>
</svg>
