<svg width="67" height="26" viewBox="0 0 67 26" fill="none" xmlns="http://www.w3.org/2000/svg">
<rect width="67" height="26" rx="13" fill="url(#paint0_linear_0_138)"/>
<path d="M13.924 17.144C13.348 17.144 12.824 17.032 12.352 16.808C11.888 16.576 11.516 16.22 11.236 15.74C10.956 15.26 10.816 14.648 10.816 13.904V8.6H11.824V13.916C11.824 14.732 12.02 15.324 12.412 15.692C12.804 16.06 13.316 16.244 13.948 16.244C14.58 16.244 15.088 16.06 15.472 15.692C15.856 15.324 16.048 14.732 16.048 13.916V8.6H17.056V13.904C17.056 14.648 16.916 15.26 16.636 15.74C16.356 16.22 15.98 16.576 15.508 16.808C15.036 17.032 14.508 17.144 13.924 17.144ZM18.703 19.64V11.048H19.615L19.711 12.032C19.903 11.744 20.175 11.484 20.527 11.252C20.887 11.02 21.343 10.904 21.895 10.904C22.487 10.904 23.003 11.04 23.443 11.312C23.883 11.584 24.223 11.956 24.463 12.428C24.711 12.9 24.835 13.436 24.835 14.036C24.835 14.636 24.711 15.172 24.463 15.644C24.223 16.108 23.879 16.476 23.431 16.748C22.991 17.012 22.475 17.144 21.883 17.144C21.395 17.144 20.959 17.044 20.575 16.844C20.199 16.644 19.911 16.364 19.711 16.004V19.64H18.703ZM21.775 16.268C22.175 16.268 22.527 16.176 22.831 15.992C23.135 15.8 23.375 15.536 23.551 15.2C23.727 14.864 23.815 14.472 23.815 14.024C23.815 13.576 23.727 13.184 23.551 12.848C23.375 12.512 23.135 12.252 22.831 12.068C22.527 11.876 22.175 11.78 21.775 11.78C21.375 11.78 21.023 11.876 20.719 12.068C20.415 12.252 20.175 12.512 19.999 12.848C19.823 13.184 19.735 13.576 19.735 14.024C19.735 14.472 19.823 14.864 19.999 15.2C20.175 15.536 20.415 15.8 20.719 15.992C21.023 16.176 21.375 16.268 21.775 16.268ZM28.3323 15.128C27.9963 15.128 27.6883 15.084 27.4083 14.996L26.8083 15.56C26.8963 15.624 27.0043 15.68 27.1323 15.728C27.2683 15.768 27.4603 15.808 27.7083 15.848C27.9563 15.88 28.3043 15.916 28.7523 15.956C29.5523 16.012 30.1243 16.196 30.4683 16.508C30.8123 16.82 30.9843 17.228 30.9843 17.732C30.9843 18.076 30.8883 18.404 30.6963 18.716C30.5123 19.028 30.2243 19.284 29.8323 19.484C29.4483 19.684 28.9523 19.784 28.3443 19.784C27.8083 19.784 27.3323 19.712 26.9163 19.568C26.5003 19.432 26.1763 19.22 25.9443 18.932C25.7123 18.652 25.5963 18.296 25.5963 17.864C25.5963 17.64 25.6563 17.396 25.7763 17.132C25.8963 16.876 26.1203 16.632 26.4483 16.4C26.2723 16.328 26.1203 16.252 25.9923 16.172C25.8723 16.084 25.7603 15.988 25.6563 15.884V15.608L26.6763 14.6C26.2043 14.2 25.9683 13.672 25.9683 13.016C25.9683 12.624 26.0603 12.268 26.2443 11.948C26.4283 11.628 26.6963 11.376 27.0483 11.192C27.4003 11 27.8283 10.904 28.3323 10.904C28.6763 10.904 28.9883 10.952 29.2683 11.048H31.4643V11.804L30.3483 11.852C30.5803 12.188 30.6963 12.576 30.6963 13.016C30.6963 13.408 30.6003 13.764 30.4083 14.084C30.2243 14.404 29.9563 14.66 29.6043 14.852C29.2603 15.036 28.8363 15.128 28.3323 15.128ZM28.3323 14.3C28.7563 14.3 29.0923 14.192 29.3403 13.976C29.5963 13.752 29.7243 13.432 29.7243 13.016C29.7243 12.608 29.5963 12.296 29.3403 12.08C29.0923 11.856 28.7563 11.744 28.3323 11.744C27.9003 11.744 27.5563 11.856 27.3003 12.08C27.0523 12.296 26.9283 12.608 26.9283 13.016C26.9283 13.432 27.0523 13.752 27.3003 13.976C27.5563 14.192 27.9003 14.3 28.3323 14.3ZM26.5803 17.768C26.5803 18.168 26.7483 18.464 27.0843 18.656C27.4203 18.856 27.8403 18.956 28.3443 18.956C28.8403 18.956 29.2363 18.848 29.5323 18.632C29.8363 18.416 29.9883 18.128 29.9883 17.768C29.9883 17.512 29.8843 17.288 29.6763 17.096C29.4683 16.912 29.0843 16.804 28.5243 16.772C28.0843 16.74 27.7043 16.7 27.3843 16.652C27.0563 16.828 26.8403 17.016 26.7363 17.216C26.6323 17.424 26.5803 17.608 26.5803 17.768ZM32.6014 17V11.048H33.5134L33.5974 12.188C33.7814 11.796 34.0614 11.484 34.4374 11.252C34.8134 11.02 35.2774 10.904 35.8294 10.904V11.96H35.5534C35.2014 11.96 34.8774 12.024 34.5814 12.152C34.2854 12.272 34.0494 12.48 33.8734 12.776C33.6974 13.072 33.6094 13.48 33.6094 14V17H32.6014ZM38.9408 17.144C38.4448 17.144 38.0328 17.06 37.7048 16.892C37.3768 16.724 37.1328 16.5 36.9728 16.22C36.8128 15.94 36.7328 15.636 36.7328 15.308C36.7328 14.7 36.9648 14.232 37.4288 13.904C37.8928 13.576 38.5248 13.412 39.3248 13.412H40.9328V13.34C40.9328 12.82 40.7968 12.428 40.5248 12.164C40.2528 11.892 39.8888 11.756 39.4328 11.756C39.0408 11.756 38.7008 11.856 38.4128 12.056C38.1328 12.248 37.9568 12.532 37.8848 12.908H36.8528C36.8928 12.476 37.0368 12.112 37.2848 11.816C37.5408 11.52 37.8568 11.296 38.2328 11.144C38.6088 10.984 39.0088 10.904 39.4328 10.904C40.2648 10.904 40.8888 11.128 41.3048 11.576C41.7288 12.016 41.9408 12.604 41.9408 13.34V17H41.0408L40.9808 15.932C40.8128 16.268 40.5648 16.556 40.2368 16.796C39.9168 17.028 39.4848 17.144 38.9408 17.144ZM39.0968 16.292C39.4808 16.292 39.8088 16.192 40.0808 15.992C40.3608 15.792 40.5728 15.532 40.7168 15.212C40.8608 14.892 40.9328 14.556 40.9328 14.204V14.192H39.4088C38.8168 14.192 38.3968 14.296 38.1488 14.504C37.9088 14.704 37.7888 14.956 37.7888 15.26C37.7888 15.572 37.9008 15.824 38.1248 16.016C38.3568 16.2 38.6808 16.292 39.0968 16.292ZM46.153 17.144C45.561 17.144 45.041 17.008 44.593 16.736C44.153 16.464 43.809 16.092 43.561 15.62C43.321 15.148 43.201 14.612 43.201 14.012C43.201 13.412 43.325 12.88 43.573 12.416C43.821 11.944 44.165 11.576 44.605 11.312C45.045 11.04 45.565 10.904 46.165 10.904C46.653 10.904 47.085 11.004 47.461 11.204C47.837 11.404 48.129 11.684 48.337 12.044V8.36H49.345V17H48.433L48.337 16.016C48.145 16.304 47.869 16.564 47.509 16.796C47.149 17.028 46.697 17.144 46.153 17.144ZM46.261 16.268C46.661 16.268 47.013 16.176 47.317 15.992C47.629 15.8 47.869 15.536 48.037 15.2C48.213 14.864 48.301 14.472 48.301 14.024C48.301 13.576 48.213 13.184 48.037 12.848C47.869 12.512 47.629 12.252 47.317 12.068C47.013 11.876 46.661 11.78 46.261 11.78C45.869 11.78 45.517 11.876 45.205 12.068C44.901 12.252 44.661 12.512 44.485 12.848C44.317 13.184 44.233 13.576 44.233 14.024C44.233 14.472 44.317 14.864 44.485 15.2C44.661 15.536 44.901 15.8 45.205 15.992C45.517 16.176 45.869 16.268 46.261 16.268ZM53.6642 17.144C53.0962 17.144 52.5922 17.016 52.1522 16.76C51.7122 16.496 51.3642 16.132 51.1082 15.668C50.8602 15.204 50.7362 14.656 50.7362 14.024C50.7362 13.4 50.8602 12.856 51.1082 12.392C51.3562 11.92 51.7002 11.556 52.1402 11.3C52.5882 11.036 53.1042 10.904 53.6882 10.904C54.2642 10.904 54.7602 11.036 55.1762 11.3C55.6002 11.556 55.9242 11.896 56.1482 12.32C56.3722 12.744 56.4842 13.2 56.4842 13.688C56.4842 13.776 56.4802 13.864 56.4722 13.952C56.4722 14.04 56.4722 14.14 56.4722 14.252H51.7322C51.7562 14.708 51.8602 15.088 52.0442 15.392C52.2362 15.688 52.4722 15.912 52.7522 16.064C53.0402 16.216 53.3442 16.292 53.6642 16.292C54.0802 16.292 54.4282 16.196 54.7082 16.004C54.9882 15.812 55.1922 15.552 55.3202 15.224H56.3162C56.1562 15.776 55.8482 16.236 55.3922 16.604C54.9442 16.964 54.3682 17.144 53.6642 17.144ZM53.6642 11.756C53.1842 11.756 52.7562 11.904 52.3802 12.2C52.0122 12.488 51.8002 12.912 51.7442 13.472H55.4882C55.4642 12.936 55.2802 12.516 54.9362 12.212C54.5922 11.908 54.1682 11.756 53.6642 11.756Z" fill="white"/>
<defs>
<linearGradient id="paint0_linear_0_138" x1="0" y1="0" x2="64.6501" y2="30.9143" gradientUnits="userSpaceOnUse">
<stop stop-color="#2B9F97"/>
<stop offset="1" stop-color="#1C7A73"/>
</linearGradient>
</defs>
</svg>
