<svg width="30" height="41" viewBox="0 0 30 41" fill="none" xmlns="http://www.w3.org/2000/svg">
<path d="M5.03047 4.32617C7.83776 1.51888 11.2193 0.115234 15.175 0.115234C19.1307 0.115234 22.4803 1.51888 25.2238 4.32617C28.0311 7.06966 29.4348 10.4193 29.4348 14.375C29.4348 19.1602 27.3931 23.0521 23.3098 26.0508V30.7402C23.3098 31.3145 23.1184 31.793 22.7355 32.1758C22.3527 32.5586 21.8742 32.75 21.3 32.75H9.05C8.47578 32.75 7.99727 32.5586 7.61445 32.1758C7.23164 31.793 7.04024 31.3145 7.04024 30.7402V26.0508C2.9569 23.2435 0.915236 19.3516 0.915236 14.375C0.915236 10.4193 2.28698 7.06966 5.03047 4.32617ZM9.05 38.875V36.8652H21.3V38.875C21.3 39.4492 21.1086 39.9277 20.7258 40.3105C20.343 40.6934 19.8645 40.8848 19.2902 40.8848H11.0598C10.4855 40.8848 10.007 40.6934 9.62422 40.3105C9.24141 39.9277 9.05 39.4492 9.05 38.875Z" fill="url(#paint0_radial_1_536)"/>
<defs>
<radialGradient id="paint0_radial_1_536" cx="0" cy="0" r="1" gradientUnits="userSpaceOnUse" gradientTransform="translate(15.175 20.5) rotate(90) scale(24.5 24.675)">
<stop stop-color="#2B9F97"/>
<stop offset="1" stop-color="#1C7A73"/>
</radialGradient>
</defs>
</svg>
