<svg width="46" height="37" viewBox="0 0 46 37" fill="none" xmlns="http://www.w3.org/2000/svg">
<path d="M12.9348 16.4902C12.9348 14.5762 12.3605 12.9173 11.2121 11.5137C10.0637 10.0462 8.59623 9.05729 6.80977 8.54688V6.25C6.80977 5.10156 7.09688 4.08073 7.67109 3.1875C8.24531 2.23047 8.97904 1.49674 9.87227 0.986328C10.8293 0.412109 11.8501 0.125 12.9348 0.125H33.4152C34.4999 0.125 35.4888 0.412109 36.382 0.986328C37.3391 1.49674 38.1047 2.23047 38.6789 3.1875C39.2531 4.08073 39.5402 5.10156 39.5402 6.25V8.54688C37.7538 9.05729 36.2863 10.0462 35.1379 11.5137C33.9895 12.9173 33.4152 14.5762 33.4152 16.4902V20.5098H12.9348V16.4902ZM41.55 12.375C42.6984 12.375 43.6555 12.7897 44.4211 13.6191C45.2505 14.3848 45.6652 15.3418 45.6652 16.4902V26.6348C45.6652 27.7832 45.3781 28.8359 44.8039 29.793C44.2297 30.6862 43.4641 31.4199 42.507 31.9941C41.6138 32.5046 40.6249 32.7598 39.5402 32.7598V34.8652C39.5402 35.3757 39.3169 35.8542 38.8703 36.3008C38.4875 36.6836 38.009 36.875 37.4348 36.875C36.9244 36.875 36.4458 36.6836 35.9992 36.3008C35.6164 35.8542 35.425 35.3757 35.425 34.8652V32.7598H10.925V34.8652C10.925 35.3757 10.7017 35.8542 10.2551 36.3008C9.87227 36.6836 9.42565 36.875 8.91524 36.875C8.34102 36.875 7.8306 36.6836 7.38399 36.3008C7.00117 35.8542 6.80977 35.3757 6.80977 34.8652V32.7598C5.72513 32.7598 4.7043 32.5046 3.74727 31.9941C2.85404 31.4199 2.12031 30.6862 1.54609 29.793C0.971876 28.8359 0.684767 27.7832 0.684767 26.6348V16.4902C0.684767 15.3418 1.06758 14.3848 1.8332 13.6191C2.66263 12.7897 3.65156 12.375 4.8 12.375C5.94844 12.375 6.90547 12.7897 7.67109 13.6191C8.50052 14.3848 8.91524 15.3418 8.91524 16.4902V24.625H37.4348V16.4902C37.4348 15.3418 37.8176 14.3848 38.5832 13.6191C39.4126 12.7897 40.4016 12.375 41.55 12.375Z" fill="url(#paint0_linear_1_540)"/>
<defs>
<linearGradient id="paint0_linear_1_540" x1="23.175" y1="-6" x2="23.175" y2="43" gradientUnits="userSpaceOnUse">
<stop stop-color="#2B9F97"/>
<stop offset="1" stop-color="#1C7A73"/>
</linearGradient>
</defs>
</svg>
