<svg width="50" height="51" viewBox="0 0 50 51" fill="none" xmlns="http://www.w3.org/2000/svg">
<rect x="0.5" y="1" width="49" height="49" rx="24.5" stroke="#1C7A73" stroke-opacity="0.25"/>
<path d="M20.3333 20.8262C20.3333 20.1787 20.3333 19.855 20.4683 19.6766C20.5859 19.5211 20.7657 19.4249 20.9603 19.4133C21.1836 19.4 21.453 19.5795 21.9917 19.9387L29.0021 24.6122C29.4472 24.909 29.6697 25.0574 29.7473 25.2444C29.8151 25.4079 29.8151 25.5916 29.7473 25.7551C29.6697 25.9422 29.4472 26.0905 29.0021 26.3873L21.9917 31.0609C21.453 31.42 21.1836 31.5996 20.9603 31.5862C20.7657 31.5746 20.5859 31.4784 20.4683 31.323C20.3333 31.1445 20.3333 30.8208 20.3333 30.1733V20.8262Z" fill="#1C7A73"/>
</svg>
