<svg width="24" height="26" viewBox="0 0 24 26" fill="none" xmlns="http://www.w3.org/2000/svg">
<path d="M4.6977 23.853C5.57618 24.9437 6.89594 26 8.41498 26C9.27923 26 10.0133 25.5937 10.8023 25.2972C11.529 25.0295 12.2973 24.892 13.0718 24.8909C13.8189 24.8866 14.5594 25.0316 15.2497 25.3175C15.6157 25.4718 15.9777 25.6364 16.3498 25.7786C16.7274 25.9241 17.1286 25.9992 17.5333 26C18.282 25.9914 19.0107 25.757 19.6238 25.3276C21.4052 24.1089 22.7249 21.968 23.6603 20.0932C23.7539 19.9064 23.8434 19.7175 23.9328 19.5306C24.0813 19.2178 23.8474 18.8217 23.4326 18.5942C21.6024 17.5908 20.5307 16.0389 20.3518 13.8981C20.1728 11.7572 21.0066 10.0672 22.6802 8.84036L23.0096 8.5702C23.1926 8.4199 23.093 8.0035 22.7493 7.67851C21.4834 6.43337 19.7875 5.72087 18.0112 5.68793C17.6664 5.68809 17.3223 5.71663 16.9822 5.77324C15.4368 6.03729 14.1963 6.77259 12.7403 6.77259C12.2985 6.77305 11.8594 6.70452 11.4388 6.56947C10.2187 6.17948 9.00674 5.68793 7.70935 5.68793C7.567 5.68793 7.42262 5.68793 7.27824 5.70621C5.67879 5.87647 4.18531 6.58653 3.04444 7.71913C0.795357 9.93314 0.476093 13.372 1.03735 16.2786C1.57623 19.0939 2.90209 21.6308 4.6977 23.853Z" fill="white"/>
<path d="M12.5903 5.68795C12.6194 5.69054 12.6487 5.69054 12.6777 5.68795C16.9746 4.88766 17.4443 1.57274 17.4708 0.362139C17.4717 0.313189 17.4625 0.264578 17.4437 0.219351C17.4249 0.174124 17.397 0.133257 17.3617 0.0993127C17.3264 0.065368 17.2844 0.0390771 17.2385 0.0220881C17.1925 0.00509904 17.1435 -0.00222181 17.0946 0.00058444C17.0583 0.000548076 17.0221 0.00463681 16.9868 0.0127717C12.6472 1.01619 12.1958 4.14221 12.1836 5.31015C12.1846 5.3619 12.196 5.41291 12.2172 5.46016C12.2384 5.50741 12.2688 5.54992 12.3068 5.58517C12.3447 5.62042 12.3894 5.64768 12.4381 5.66534C12.4868 5.683 12.5386 5.69069 12.5903 5.68795ZM16.6085 0.953219C16.4357 2.18413 15.7219 4.07924 13.0377 4.76985C13.2004 3.6141 13.8836 1.78195 16.6085 0.953219Z" fill="white"/>
<path d="M15.3543 1.22851L16.713 0.588257V2.20168L15.6105 3.6102L14.4568 4.6602L13.5082 4.91629H12.739L13.2005 3.37972L14.1748 1.74071L15.3543 1.22851Z" fill="white"/>
</svg>
