<svg width="40" height="26" viewBox="0 0 40 26" fill="none" xmlns="http://www.w3.org/2000/svg">
<path d="M27.1367 14.9026C28.668 14.9026 30.3359 15.1213 32.1406 15.5588C33.9453 15.9963 35.6133 16.7073 37.1445 17.6917C38.6758 18.676 39.4414 19.7971 39.4414 21.0549V25.4026H28.9414V21.0549C28.9414 18.6487 27.793 16.6252 25.4961 14.9846C25.8789 14.9299 26.4258 14.9026 27.1367 14.9026ZM8.1875 15.5588C9.99219 15.1213 11.6602 14.9026 13.1914 14.9026C14.7227 14.9026 16.3906 15.1213 18.1953 15.5588C20 15.9963 21.6406 16.7073 23.1172 17.6917C24.6484 18.676 25.4141 19.7971 25.4141 21.0549V25.4026H0.886719V21.0549C0.886719 19.7971 1.65234 18.676 3.18359 17.6917C4.71484 16.7073 6.38281 15.9963 8.1875 15.5588ZM16.8008 9.89868C15.8164 10.9377 14.6133 11.4573 13.1914 11.4573C11.7695 11.4573 10.5391 10.9377 9.5 9.89868C8.46094 8.85962 7.94141 7.62915 7.94141 6.20728C7.94141 4.7854 8.46094 3.55493 9.5 2.51587C10.5391 1.47681 11.7695 0.957275 13.1914 0.957275C14.6133 0.957275 15.8164 1.47681 16.8008 2.51587C17.8398 3.55493 18.3594 4.7854 18.3594 6.20728C18.3594 7.62915 17.8398 8.85962 16.8008 9.89868ZM30.8281 9.89868C29.7891 10.9377 28.5586 11.4573 27.1367 11.4573C25.7148 11.4573 24.4844 10.9377 23.4453 9.89868C22.4062 8.85962 21.8867 7.62915 21.8867 6.20728C21.8867 4.7854 22.4062 3.55493 23.4453 2.51587C24.4844 1.47681 25.7148 0.957275 27.1367 0.957275C28.5586 0.957275 29.7891 1.47681 30.8281 2.51587C31.8672 3.55493 32.3867 4.7854 32.3867 6.20728C32.3867 7.62915 31.8672 8.85962 30.8281 9.89868Z" fill="url(#paint0_radial_1_512)"/>
<defs>
<radialGradient id="paint0_radial_1_512" cx="0" cy="0" r="1" gradientUnits="userSpaceOnUse" gradientTransform="translate(20.1641 13.1799) rotate(90) scale(21 21.1641)">
<stop stop-color="#2B9F97"/>
<stop offset="1" stop-color="#1C7A73"/>
</radialGradient>
</defs>
</svg>
