<svg width="27" height="26" viewBox="0 0 27 26" fill="none" xmlns="http://www.w3.org/2000/svg">
<g clip-path="url(#clip0_1_1224)">
<path fill-rule="evenodd" clip-rule="evenodd" d="M0.936279 13C0.936279 19.435 5.62163 24.765 11.8037 25.87L11.8806 25.8071C11.8767 25.8064 11.8727 25.8057 11.8687 25.8049V16.6399H8.61498V12.9999H11.8687V10.1399C11.8687 6.88995 13.9511 5.06995 16.9445 5.06995C17.8555 5.06995 18.8967 5.19995 19.8078 5.32995V8.64495H18.1158C16.554 8.64495 16.1636 9.42495 16.1636 10.4649V12.9999H19.6125L19.0269 16.6399H16.1636V25.8049C16.124 25.8121 16.0843 25.8191 16.0447 25.8259L16.0986 25.87C22.2807 24.765 26.966 19.435 26.966 13C26.966 5.85 21.1093 0 13.9512 0C6.79297 0 0.936279 5.85 0.936279 13Z" fill="white"/>
</g>
<defs>
<clipPath id="clip0_1_1224">
<rect width="26.0297" height="26" fill="white" transform="translate(0.936279)"/>
</clipPath>
</defs>
</svg>
