<svg width="26" height="26" viewBox="0 0 26 26" fill="none" xmlns="http://www.w3.org/2000/svg">
<mask id="mask0_1_1205" style="mask-type:luminance" maskUnits="userSpaceOnUse" x="0" y="0" width="26" height="26">
<path d="M25.4685 10.6364H13.341V15.6591H20.3218C19.671 18.85 16.9497 20.6818 13.341 20.6818C9.08163 20.6818 5.65044 17.2545 5.65044 13C5.65044 8.74545 9.08163 5.31818 13.341 5.31818C15.175 5.31818 16.8314 5.96818 18.1329 7.03182L21.919 3.25C19.6118 1.24091 16.6539 0 13.341 0C6.12371 0 0.326172 5.79091 0.326172 13C0.326172 20.2091 6.12371 26 13.341 26C19.8485 26 25.7643 21.2727 25.7643 13C25.7643 12.2318 25.646 11.4045 25.4685 10.6364Z" fill="white"/>
</mask>
<g mask="url(#mask0_1_1205)">
<path d="M-0.856934 20.6818V5.31812L9.20001 12.9999L-0.856934 20.6818Z" fill="white"/>
</g>
<mask id="mask1_1_1205" style="mask-type:luminance" maskUnits="userSpaceOnUse" x="0" y="0" width="26" height="26">
<path d="M25.4685 10.6364H13.341V15.6591H20.3218C19.671 18.85 16.9497 20.6818 13.341 20.6818C9.08163 20.6818 5.65044 17.2545 5.65044 13C5.65044 8.74545 9.08163 5.31818 13.341 5.31818C15.175 5.31818 16.8314 5.96818 18.1329 7.03182L21.919 3.25C19.6118 1.24091 16.6539 0 13.341 0C6.12371 0 0.326172 5.79091 0.326172 13C0.326172 20.2091 6.12371 26 13.341 26C19.8485 26 25.7643 21.2727 25.7643 13C25.7643 12.2318 25.646 11.4045 25.4685 10.6364Z" fill="white"/>
</mask>
<g mask="url(#mask1_1_1205)">
<path d="M-0.856934 5.31811L9.20001 12.9999L13.3411 9.39539L27.5392 7.09084V-1.18188H-0.856934V5.31811Z" fill="white"/>
</g>
<mask id="mask2_1_1205" style="mask-type:luminance" maskUnits="userSpaceOnUse" x="0" y="0" width="26" height="26">
<path d="M25.4685 10.6364H13.341V15.6591H20.3218C19.671 18.85 16.9497 20.6818 13.341 20.6818C9.08163 20.6818 5.65044 17.2545 5.65044 13C5.65044 8.74545 9.08163 5.31818 13.341 5.31818C15.175 5.31818 16.8314 5.96818 18.1329 7.03182L21.919 3.25C19.6118 1.24091 16.6539 0 13.341 0C6.12371 0 0.326172 5.79091 0.326172 13C0.326172 20.2091 6.12371 26 13.341 26C19.8485 26 25.7643 21.2727 25.7643 13C25.7643 12.2318 25.646 11.4045 25.4685 10.6364Z" fill="white"/>
</mask>
<g mask="url(#mask2_1_1205)">
<path d="M-0.856934 20.6818L16.8906 7.09084L21.5641 7.68175L27.5392 -1.18188V27.1818H-0.856934V20.6818Z" fill="white"/>
</g>
<mask id="mask3_1_1205" style="mask-type:luminance" maskUnits="userSpaceOnUse" x="0" y="0" width="26" height="26">
<path d="M25.4685 10.6364H13.341V15.6591H20.3218C19.671 18.85 16.9497 20.6818 13.341 20.6818C9.08163 20.6818 5.65044 17.2545 5.65044 13C5.65044 8.74545 9.08163 5.31818 13.341 5.31818C15.175 5.31818 16.8314 5.96818 18.1329 7.03182L21.919 3.25C19.6118 1.24091 16.6539 0 13.341 0C6.12371 0 0.326172 5.79091 0.326172 13C0.326172 20.2091 6.12371 26 13.341 26C19.8485 26 25.7643 21.2727 25.7643 13C25.7643 12.2318 25.646 11.4045 25.4685 10.6364Z" fill="white"/>
</mask>
<g mask="url(#mask3_1_1205)">
<path d="M27.539 27.1818L9.19984 13L6.8335 11.2273L27.539 5.31818V27.1818Z" fill="white"/>
</g>
</svg>
